# xmcd CD database file
#
# Track frame offsets:
#	183
#	16275
#	37340
#	58705
#	76028
#	91308
#	109260
#	132140
#	152753
#	170265
#	201978
#	210828
#	221473
#	238933
#	269115
#	289965
#
# Disc length: 3924 seconds
#
# Revision: 1
# Processed by: cddbd v1.4PL0 Copyright (c) Steve Scherf et al.
# Submitted via: CDex 1.50beta9
#
DISCID=e80f5210
DTITLE=Gary Davis - Rev. Gary Davis - At The Sign Of The Sun 1962
DYEAR=1962
DGENRE=Blues
TTITLE0=Sun Is Going Down
TTITLE1=I'm Gonna Meet You At The Station
TTITLE2=If I Had My Way
TTITLE3=Twelve Gates To The City
TTITLE4=God's Gonna Separate The Wheat From The Tares
TTITLE5=Get Right Church
TTITLE6=When The Saints Go Marching In
TTITLE7=God Don't Work Like A Natural Man - 2
TTITLE8=Soon My Work Will All Be Done
TTITLE9=I'll Be Alright
TTITLE10=Old Drunken Sally
TTITLE11=Kitty Went A-Courtin' - 1
TTITLE12=Keep Your Lamp Trimmed And Burning - 1
TTITLE13=There's Destruction In This Land
TTITLE14=Death Don't Have No Mercy
TTITLE15=Near The Cross
EXTD=YEAR: 1962
EXTT0=
EXTT1=
EXTT2=
EXTT3=
EXTT4=
EXTT5=
EXTT6=
EXTT7=
EXTT8=
EXTT9=
EXTT10=
EXTT11=
EXTT12=
EXTT13=
EXTT14=
EXTT15=
PLAYORDER=
